<mxfile host="65bd71144e">
    <diagram id="MGptWGEGaZbUE06SFhFs" name="Page-1">
        <mxGraphModel dx="899" dy="533" grid="1" gridSize="10" guides="1" tooltips="1" connect="1" arrows="1" fold="1" page="1" pageScale="1" pageWidth="100" pageHeight="100" math="0" shadow="0">
            <root>
                <mxCell id="0"/>
                <mxCell id="1" parent="0"/>
                <mxCell id="5" style="edgeStyle=none;html=1;exitX=1;exitY=0.5;exitDx=0;exitDy=0;entryX=0;entryY=0.5;entryDx=0;entryDy=0;" edge="1" parent="1" source="2" target="3">
                    <mxGeometry relative="1" as="geometry"/>
                </mxCell>
                <mxCell id="2" value="用户注册" style="rounded=1;whiteSpace=wrap;html=1;fontFamily=仿宋;fillColor=#f5f5f5;fontColor=#333333;strokeColor=#666666;fontSize=16;" vertex="1" parent="1">
                    <mxGeometry x="10" y="34" width="120" height="60" as="geometry"/>
                </mxCell>
                <mxCell id="9" style="edgeStyle=none;html=1;exitX=1;exitY=0.5;exitDx=0;exitDy=0;entryX=0;entryY=0.5;entryDx=0;entryDy=0;fontFamily=仿宋;fontSize=16;" edge="1" parent="1" source="3" target="8">
                    <mxGeometry relative="1" as="geometry"/>
                </mxCell>
                <mxCell id="3" value="企业认证申请" style="rounded=1;whiteSpace=wrap;html=1;fontFamily=仿宋;fillColor=#f5f5f5;fontColor=#333333;strokeColor=#666666;fontSize=16;" vertex="1" parent="1">
                    <mxGeometry x="210" y="34" width="120" height="60" as="geometry"/>
                </mxCell>
                <mxCell id="4" value="查看审核结果" style="rounded=1;whiteSpace=wrap;html=1;fontFamily=仿宋;fillColor=#f5f5f5;fontColor=#333333;strokeColor=#666666;fontSize=16;" vertex="1" parent="1">
                    <mxGeometry x="540" y="34" width="120" height="60" as="geometry"/>
                </mxCell>
                <mxCell id="10" style="edgeStyle=none;html=1;exitX=1;exitY=0.5;exitDx=0;exitDy=0;entryX=0;entryY=0.5;entryDx=0;entryDy=0;fontFamily=仿宋;fontSize=16;" edge="1" parent="1" source="8" target="4">
                    <mxGeometry relative="1" as="geometry"/>
                </mxCell>
                <mxCell id="13" style="edgeStyle=orthogonalEdgeStyle;html=1;exitX=0.5;exitY=1;exitDx=0;exitDy=0;entryX=0.5;entryY=1;entryDx=0;entryDy=0;fontFamily=仿宋;fontSize=16;" edge="1" parent="1" source="8" target="3">
                    <mxGeometry relative="1" as="geometry">
                        <Array as="points">
                            <mxPoint x="440" y="134"/>
                            <mxPoint x="270" y="134"/>
                        </Array>
                    </mxGeometry>
                </mxCell>
                <mxCell id="8" value="审核" style="rhombus;whiteSpace=wrap;html=1;fontFamily=仿宋;fontSize=16;fillColor=#f8cecc;strokeColor=#b85450;" vertex="1" parent="1">
                    <mxGeometry x="400" y="24" width="80" height="80" as="geometry"/>
                </mxCell>
                <mxCell id="11" value="通过" style="text;html=1;align=center;verticalAlign=middle;resizable=0;points=[];autosize=1;strokeColor=none;fillColor=none;fontSize=16;fontFamily=仿宋;" vertex="1" parent="1">
                    <mxGeometry x="480" y="39" width="60" height="30" as="geometry"/>
                </mxCell>
                <mxCell id="14" value="未通过" style="text;html=1;align=center;verticalAlign=middle;resizable=0;points=[];autosize=1;strokeColor=none;fillColor=none;fontSize=16;fontFamily=仿宋;" vertex="1" parent="1">
                    <mxGeometry x="315" y="134" width="70" height="30" as="geometry"/>
                </mxCell>
            </root>
        </mxGraphModel>
    </diagram>
</mxfile>